<svg t="1760680277906" class="icon" viewBox="0 0 1024 1024" version="1.1" xmlns="http://www.w3.org/2000/svg" p-id="5409" width="32" height="32">
  <path d="M918.357333 524.458667A832.341333 832.341333 0 0 0 826.88 411.306667C731.562667 313.173333 625.493333 256 512 256s-219.562667 57.173333-314.88 155.392A832.341333 832.341333 0 0 0 99.84 533.333333l5.973333 8.874667A832.853333 832.853333 0 0 0 197.12 655.274667C292.522667 753.493333 398.421333 810.666667 512 810.666667c113.493333 0 219.477333-57.173333 314.88-155.392a832.853333 832.853333 0 0 0 97.365333-122.026667 910.848 910.848 0 0 0-5.973333-8.789333zM512 896c-320.170667 0-512-362.666667-512-362.666667S191.744 170.666667 512 170.666667s512 362.666667 512 362.666666-191.829333 362.666667-512 362.666667z m0-196.266667a170.666667 170.666667 0 1 0 0-341.333333 170.666667 170.666667 0 0 0 0 341.333333z m0-85.333333a85.333333 85.333333 0 1 1 0-170.666667 85.333333 85.333333 0 0 1 0 170.666667z" fill="#8a8a8a" p-id="5410"></path>
</svg>