<svg width="25" height="24" viewBox="0 0 25 24" fill="none" xmlns="http://www.w3.org/2000/svg">
<g clip-path="url(#clip0_1_1537)">
<path d="M5.37184 12.0918C5.37184 11.3294 5.50031 10.5988 5.72761 9.91272L1.73655 6.89154C0.933478 8.50751 0.516877 10.288 0.519606 12.0925C0.519606 13.961 0.957253 15.7242 1.73372 17.2892L5.72408 14.2631C5.49114 13.5631 5.37221 12.8302 5.37184 12.0925" fill="#FBBC05"/>
<path d="M12.3834 5.15579C13.9738 5.15248 15.5165 5.69856 16.7507 6.70167L20.2017 3.28802C18.0989 1.47391 15.4031 0.352966 12.3834 0.352966C7.69489 0.352966 3.66572 3.00991 1.73654 6.89155L5.73042 9.91273C6.65019 7.14567 9.27184 5.15508 12.3848 5.15508" fill="#EA4335"/>
<path d="M12.4342 18.8746C9.305 18.8746 6.66994 16.8974 5.74524 14.1466L1.733 17.1494C3.67206 21.0071 7.72171 23.6471 12.4349 23.6471C15.3417 23.6471 18.1172 22.6363 20.2017 20.7395L16.3928 17.8546C15.3191 18.5181 13.9652 18.8753 12.4335 18.8753" fill="#34A853"/>
<path d="M23.8137 11.9817C23.8137 11.2927 23.705 10.5494 23.5427 9.86047H12.4328V14.3675H18.8274C18.5083 15.9049 17.6387 17.0859 16.3928 17.8546L20.201 20.7395C22.3899 18.7497 23.8137 15.7842 23.8137 11.9817Z" fill="#4285F4"/>
</g>
<defs>
<clipPath id="clip0_1_1537">
<rect width="24" height="24" fill="white" transform="translate(0.166656)"/>
</clipPath>
</defs>
</svg>
