<svg width="25" height="24" viewBox="0 0 25 24" fill="none" xmlns="http://www.w3.org/2000/svg">
<g clip-path="url(#clip0_1_1548)">
<path d="M7.7694 20C7.4414 19.999 7.2214 19.788 7.0074 19.576C5.1334 17.702 3.2534 15.832 1.3874 13.948C0.637397 13.189 0.653397 12.965 1.4094 12.175C2.6894 10.84 2.7114 10.815 4.0694 12.1C5.1414 13.114 6.1634 14.185 7.1744 15.262C7.5904 15.704 7.8734 15.684 8.3084 15.268C9.51836 14.12 10.6955 12.9378 11.8384 11.723C12.6214 10.883 12.8654 10.893 13.6984 11.714C14.8444 12.844 15.8894 14.078 17.0964 15.153C17.6424 15.639 17.9444 15.722 18.4734 15.156C19.6504 13.9 20.9074 12.72 22.1104 11.486C22.5654 11.02 22.9454 11 23.4274 11.45C25.0834 12.994 25.0474 13.116 23.3854 14.676C21.7934 16.171 20.2964 17.773 18.7624 19.332C17.8884 20.221 17.7624 20.174 16.8414 19.385C15.5494 18.277 14.4964 16.937 13.3014 15.737C12.9054 15.339 12.6424 15.307 12.2424 15.729C11.0374 16.996 9.9024 18.337 8.5764 19.481C8.3294 19.694 8.1194 19.959 7.7694 20.001" fill="#216DFF"/>
<path d="M12.6734 4.284C15.5224 4.49 18.1194 5.346 20.1704 7.714C20.6854 8.308 20.7004 8.806 20.2064 9.374C20.1294 9.462 20.0554 9.553 19.9764 9.64C18.7534 11.004 18.7534 11.004 17.4514 9.746C14.7274 7.113 10.7214 7.14 8.01738 9.81C7.83138 9.994 7.64638 10.179 7.46738 10.37C7.00538 10.865 6.62738 10.855 6.13438 10.323C4.46438 8.523 4.43338 8.528 6.21238 6.871C8.07338 5.138 10.3034 4.489 12.6734 4.284Z" fill="#216DFF"/>
</g>
<defs>
<clipPath id="clip0_1_1548">
<rect width="24" height="24" fill="white" transform="translate(0.833374)"/>
</clipPath>
</defs>
</svg>
