<?xml version="1.0" standalone="no"?><!DOCTYPE svg PUBLIC "-//W3C//DTD SVG 1.1//EN" "http://www.w3.org/Graphics/SVG/1.1/DTD/svg11.dtd"><svg t="1761875483795" class="icon" viewBox="0 0 1024 1024" version="1.1" xmlns="http://www.w3.org/2000/svg" p-id="22379" width="256" height="256" xmlns:xlink="http://www.w3.org/1999/xlink"><path d="M996.352 56.32c-8.192-10.752-17.408-20.992-28.672-28.672C944.64 10.24 916.48 0 885.76 0H138.24c-30.72 0-58.88 10.24-81.92 27.648C45.056 35.84 35.328 45.056 27.136 56.32 10.24 79.36 0 107.52 0 138.752V885.76c0 30.72 10.24 59.392 27.648 81.92 8.192 10.752 17.408 20.992 28.672 28.672 23.04 17.408 51.2 27.648 81.92 27.648h747.008c30.72 0 59.392-10.24 81.92-27.648 10.752-8.192 20.992-17.408 28.672-28.672 17.408-23.04 27.648-51.2 27.648-81.92V138.752c0.512-31.232-10.752-59.392-27.136-82.432zM76.288 658.432c-12.8-22.016-24.064-42.496-35.84-62.976 0-2.56 23.04-72.704 17.92-151.552h62.976c0-0.512 2.048 147.968-45.056 214.528z m146.944-8.192c0.512 36.864-25.088 36.864-25.088 36.864h-36.352l-37.888-50.176H163.84V359.424h59.904c0.512 91.136 0 200.192-0.512 290.816z m87.552 4.608c-28.672-25.088-44.032-100.352-44.032-211.968h59.392c-4.608 58.88 14.336 137.216 14.336 137.216s-17.408 38.912-29.696 74.752zM440.32 680.96c-1.536 3.072-6.656 6.144-10.24 6.144-27.648 0.512-55.808 0-88.064 0 12.288-24.064 22.016-44.032 30.72-60.928h95.744c-10.24 20.992-18.944 38.4-28.16 54.784z m23.552-75.264c-20.992 0-42.496 0.512-63.488-1.536-15.36-1.536-20.992-13.312-15.36-27.648 7.168-17.92 15.872-35.328 23.552-52.736 2.56-6.144 5.632-12.288 9.216-20.992H389.12c-24.576-1.024-33.28-12.288-23.04-35.328 16.384-36.352 34.816-71.68 52.224-107.52h59.904c-14.848 29.184-31.232 57.856-41.472 86.016 24.576-1.536 46.592-2.56 72.704-4.096-13.824 27.648-26.112 52.736-38.4 77.312-1.536 3.072-3.072 6.656-5.12 10.24-12.8 25.6-12.8 26.112 15.872 26.624 3.072 0 6.144 0.512 11.264 1.024-8.192 15.872-15.36 30.208-22.528 44.032-1.024 1.536-4.608 4.608-6.656 4.608z m221.184 81.92h-215.04c10.24-20.48 29.184-57.344 29.184-57.344h61.44V441.856H522.24V382.976h138.24v57.856h-37.888v189.44h62.464v57.344z m242.176-1.024h-55.296l-23.04-49.664h59.904s0.512-45.056 0-60.416c-0.512-13.312-7.68-21.504-20.992-21.504-26.624-0.512-53.248 0-82.944 0v132.096h-59.392v-131.584h-59.904v-61.44h58.368V441.856h-38.912V384h39.424v-24.576h59.904l0.512 24.576h47.616s44.032-1.024 44.032 41.984c0 12.8 0.512 54.272 0.512 68.096 50.688 0 72.192 10.24 72.192 45.056v104.96c0.512 43.52-41.984 42.496-41.984 42.496z m16.896-242.688h-31.744v-30.72c0-11.264 5.632-21.504 14.848-27.136 10.752-6.656 25.6-11.264 39.424 2.048l1.536 1.536c18.944 20.48 3.584 54.272-24.064 54.272z" fill="#FF0038" p-id="22380"></path><path d="M805.376 494.08h39.936V441.856h-40.448z" fill="#FF0038" p-id="22381"></path></svg>